<svg width="900" height="300" viewBox="0 0 900 300" fill="none" xmlns="http://www.w3.org/2000/svg">
  <defs>
    <linearGradient id="night" x1="0" y1="0" x2="0" y2="1">
      <stop offset="0" stop-color="#10141D"/>
      <stop offset="1" stop-color="#07060F"/>
    </linearGradient>
    <linearGradient id="road" x1="0" y1="0" x2="1" y2="1">
      <stop offset="0" stop-color="#FF5D6C"/>
      <stop offset="0.2" stop-color="#F6B22A"/>
      <stop offset="0.4" stop-color="#FFD86B"/>
      <stop offset="0.62" stop-color="#3ECF8E"/>
      <stop offset="0.8" stop-color="#4FA3D9"/>
      <stop offset="1" stop-color="#8B5CF6"/>
    </linearGradient>
  </defs>
  <rect width="900" height="300" rx="72" fill="#07060F"/>
  <rect x="48" y="38" width="224" height="224" rx="52" fill="url(#night)"/>
  <path d="M72 153C82 102 121 66 160 66C199 66 238 102 248 153" stroke="#FF5D6C" stroke-width="16" stroke-linecap="round"/>
  <path d="M86 154C96 111 128 82 160 82C192 82 224 111 234 154" stroke="#F6B22A" stroke-width="16" stroke-linecap="round"/>
  <path d="M100 155C110 124 134 98 160 98C186 98 210 124 220 155" stroke="#FFD86B" stroke-width="16" stroke-linecap="round"/>
  <path d="M64 208L108 134L151 208H64Z" fill="#101722"/>
  <path d="M134 209L185 126L232 209H134Z" fill="#101722"/>
  <path d="M108 134L93 168L110 158L121 181L151 208L108 134Z" fill="#F4EFE7"/>
  <path d="M185 126L166 171L185 160L197 183L232 209L185 126Z" fill="#F4EFE7"/>
  <path d="M48 214C83 205 111 205 143 214C179 224 214 220 272 216V262H48V214Z" fill="#050506"/>
  <path d="M160 191C150 212 136 232 118 262H202C183 230 169 211 160 191Z" fill="url(#road)"/>
  <path d="M160 63L107 110H213L160 63Z" fill="#030306"/>
  <path d="M118 111H202V119H118V111Z" fill="#030306"/>
  <path d="M129 118H191V161H129V118Z" fill="#030306"/>
  <path d="M114 161H206L192 176H128L114 161Z" fill="#030306"/>
  <path d="M128 175H192V224H128V175Z" fill="#030306"/>
  <rect x="143" y="129" width="12" height="13" rx="1" fill="#FFE07A"/>
  <rect x="165" y="129" width="12" height="13" rx="1" fill="#FFE07A"/>
  <rect x="143" y="187" width="14" height="30" rx="1" fill="#FFE07A"/>
  <rect x="164" y="187" width="14" height="30" rx="1" fill="#FFE07A"/>
  <path d="M119 168C136 162 150 162 166 168C181 174 195 174 211 168" stroke="#030306" stroke-width="7" stroke-linecap="round"/>
  <text x="322" y="132" font-family="Georgia, serif" font-size="70" font-weight="700" fill="#F0EEF8">Yatri</text>
  <text x="326" y="184" font-family="Arial, sans-serif" font-size="26" font-weight="700" letter-spacing="0" fill="#FFD86B">NEPAL SAFETY GUIDE</text>
</svg>
